<?xml version="1.0" encoding="UTF-8" standalone="no"?>
<!-- Created with Inkscape (http://www.inkscape.org/) -->

<svg
   version="1.1"
   id="svg2"
   width="2666.6667"
   height="2666.6667"
   viewBox="0 0 2666.6667 2666.6667"
   xmlns="http://www.w3.org/2000/svg"
   xmlns:svg="http://www.w3.org/2000/svg">
  <defs
     id="defs6" />
  <g
     id="g10"
     transform="matrix(1.3333333,0,0,-1.3333333,0,2666.6667)">
    <g
       id="g12"
       transform="scale(0.1)">
      <path
         d="M 20000,0 H 0 V 20000 H 20000 V 0"
         style="fill:#ffffff;fill-opacity:1;fill-rule:nonzero;stroke:none"
         id="path14" />
      <path
         d="m 10020.2,14236.8 v 0 c -127.63,0 -232.09,104.5 -232.09,232.1 v 710 c 0,127.7 104.46,232.2 232.09,232.2 v 0 c 127.7,0 232.2,-104.5 232.2,-232.2 v -710 c 0,-127.6 -104.5,-232.1 -232.2,-232.1"
         style="fill:#1c1a19;fill-opacity:1;fill-rule:nonzero;stroke:none"
         id="path16" />
      <path
         d="m 8762.27,13910.6 v 0 c -110.57,-63.9 -253.27,-25.6 -317.11,85 l -355,614.8 c -63.84,110.6 -25.6,253.3 84.97,317.1 v 0 c 110.57,63.9 253.26,25.6 317.1,-84.9 l 355.01,-614.9 c 63.83,-110.6 25.6,-253.3 -84.97,-317.1"
         style="fill:#2d2c2c;fill-opacity:1;fill-rule:nonzero;stroke:none"
         id="path18" />
      <path
         d="m 7835.94,12999.1 v 0 c -63.84,-110.6 -206.54,-148.8 -317.11,-85 l -614.88,355 c -110.57,63.8 -148.81,206.5 -84.97,317.1 v 0 c 63.84,110.6 206.54,148.8 317.11,85 l 614.88,-355 c 110.57,-63.9 148.81,-206.6 84.97,-317.1"
         style="fill:#565759;fill-opacity:1;fill-rule:nonzero;stroke:none"
         id="path20" />
      <path
         d="m 7489.47,11746.5 v 0 c 0,-127.7 -104.47,-232.1 -232.14,-232.1 h -710.01 c -127.67,0 -232.13,104.4 -232.13,232.1 v 0 c 0,127.7 104.46,232.2 232.13,232.2 h 710.01 c 127.67,0 232.14,-104.5 232.14,-232.2"
         style="fill:#6c6d6f;fill-opacity:1;fill-rule:nonzero;stroke:none"
         id="path22" />
      <path
         d="m 7815.69,10488.5 v 0 c 63.84,-110.5 25.6,-253.2 -84.97,-317.1 l -614.88,-355 c -110.57,-63.8 -253.27,-25.6 -317.1,85 v 0 c -63.84,110.6 -25.61,253.3 84.96,317.1 l 614.88,355 c 110.58,63.8 253.28,25.6 317.11,-85"
         style="fill:#808182;fill-opacity:1;fill-rule:nonzero;stroke:none"
         id="path24" />
      <path
         d="m 8727.2,9562.2 v 0 c 110.57,-63.8 148.81,-206.5 84.97,-317.1 l -355,-614.9 c -63.84,-110.6 -206.54,-148.8 -317.11,-84.9 v 0 c -110.57,63.8 -148.81,206.5 -84.97,317.1 l 355,614.8 c 63.84,110.6 206.54,148.8 317.11,85"
         style="fill:#808182;fill-opacity:1;fill-rule:nonzero;stroke:none"
         id="path26" />
      <path
         d="m 9979.76,9215.7 v 0 c 127.64,0 232.14,-104.4 232.14,-232.1 v -710 c 0,-127.7 -104.5,-232.1 -232.14,-232.1 v 0 c -127.68,0 -232.14,104.4 -232.14,232.1 v 710 c 0,127.7 104.46,232.1 232.14,232.1"
         style="fill:#959595;fill-opacity:1;fill-rule:nonzero;stroke:none"
         id="path28" />
      <path
         d="m 11237.7,9542 v 0 c 110.6,63.8 253.3,25.6 317.1,-85 l 355,-614.9 c 63.9,-110.6 25.6,-253.3 -84.9,-317.1 v 0 c -110.6,-63.8 -253.3,-25.6 -317.1,85 l -355,614.9 c -63.9,110.5 -25.6,253.2 84.9,317.1"
         style="fill:#aeaeac;fill-opacity:1;fill-rule:nonzero;stroke:none"
         id="path30" />
      <path
         d="m 12164.1,10453.5 v 0 c 63.8,110.5 206.5,148.8 317.1,84.9 l 614.9,-355 c 110.5,-63.8 148.8,-206.5 84.9,-317.1 v 0 c -63.8,-110.5 -206.5,-148.8 -317.1,-84.9 l -614.9,355 c -110.5,63.8 -148.8,206.5 -84.9,317.1"
         style="fill:#d9d8d7;fill-opacity:1;fill-rule:nonzero;stroke:none"
         id="path32" />
      <path
         d="m 12510.5,11706 v 0 c 0,127.7 104.5,232.2 232.2,232.2 h 710 c 127.7,0 232.1,-104.5 232.1,-232.2 v 0 c 0,-127.6 -104.4,-232.1 -232.1,-232.1 h -710 c -127.7,0 -232.2,104.5 -232.2,232.1"
         style="fill:#d9d8d7;fill-opacity:1;fill-rule:nonzero;stroke:none"
         id="path34" />
      <path
         d="m 12184.3,12964 v 0 c -63.8,110.6 -25.6,253.3 85,317.1 l 614.9,355 c 110.5,63.8 253.2,25.6 317.1,-85 v 0 c 63.8,-110.5 25.6,-253.2 -85,-317.1 l -614.9,-355 c -110.6,-63.8 -253.3,-25.6 -317.1,85"
         style="fill:#ededed;fill-opacity:1;fill-rule:nonzero;stroke:none"
         id="path36" />
      <path
         d="m 11272.8,13890.3 v 0 c -110.6,63.9 -148.8,206.6 -85,317.1 l 355,614.9 c 63.9,110.6 206.6,148.8 317.1,85 v 0 c 110.6,-63.9 148.9,-206.5 85,-317.1 l -355,-614.9 c -63.8,-110.6 -206.5,-148.8 -317.1,-85"
         style="fill:#fcfcfd;fill-opacity:1;fill-rule:nonzero;stroke:none"
         id="path38" />
      <path
         d="m 7504.2,5142.8 69.64,-0.1 -0.54,-481 230.5,-0.3 -0.06,-58.4 -300.15,0.3 0.61,539.5"
         style="fill:#1c1a19;fill-opacity:1;fill-rule:nonzero;stroke:none"
         id="path40" />
      <path
         d="m 8052.96,4869.2 c -0.13,-115.2 62.19,-218.6 171.83,-218.7 110.45,-0.1 173,101.5 173.14,223.9 0.12,107.3 -55.78,219.4 -171.84,219.5 -115.25,0.2 -172.99,-106.2 -173.13,-224.7 z m 418.61,8.3 c -0.21,-185.6 -113.17,-284 -250.84,-283.8 -142.47,0.2 -242.39,110.7 -242.2,274 0.19,171.3 106.76,283.2 250.83,283.1 147.27,-0.2 242.39,-113.2 242.21,-273.3"
         style="fill:#1c1a19;fill-opacity:1;fill-rule:nonzero;stroke:none"
         id="path42" />
      <path
         d="m 8974.96,4825.8 -52.65,155.3 c -11.97,35.2 -19.93,67.2 -27.91,98.5 h -1.59 c -8.04,-32 -16.89,-64.9 -27.33,-97.6 l -53,-156.1 z m -176.95,-54.3 -56.21,-169.6 -72.04,0.1 183.9,539.2 84.04,-0.1 183.47,-539.6 -74.43,0.1 -57.43,169.7 -191.3,0.2"
         style="fill:#1c1a19;fill-opacity:1;fill-rule:nonzero;stroke:none"
         id="path44" />
      <path
         d="m 9430.19,4656.4 c 17.6,-3.3 43.21,-4.1 70.43,-4.1 148.87,-0.2 229.8,83 229.97,228.6 0.94,127.3 -71.01,208.2 -218.28,208.4 -36.01,0 -63.23,-3.2 -81.64,-7.1 z m -69.1,477.1 c 42.43,6.3 92.86,11.1 148.08,11 100.05,-0.1 171.26,-23.4 218.43,-67.5 47.98,-44.1 75.92,-106.5 75.82,-193.8 -0.1,-88 -27.39,-160 -77.87,-209.6 -50.49,-50.3 -133.75,-77.5 -238.6,-77.3 -49.63,0 -91.24,2.5 -126.46,6.5 l 0.6,530.7"
         style="fill:#1c1a19;fill-opacity:1;fill-rule:nonzero;stroke:none"
         id="path46" />
      <path
         d="m 10123.9,5139.8 -0.7,-539.4 h -69.6 l 0.6,539.5 69.7,-0.1"
         style="fill:#1c1a19;fill-opacity:1;fill-rule:nonzero;stroke:none"
         id="path48" />
      <path
         d="m 10405,4600 0.6,539.5 76,-0.1 172.6,-273.1 c 40,-63.3 71.1,-120.2 96.6,-175.4 l 1.7,0.8 c -6.4,72 -7.9,137.7 -7.8,221.7 l 0.3,225.7 65.6,-0.1 -0.6,-539.4 h -70.5 l -170.9,274 c -37.6,60 -73.5,121.7 -100.7,180.2 l -2.4,-0.8 c 4,-68.1 5.5,-132.9 5.4,-222.5 l -0.3,-230.5 h -65.6"
         style="fill:#1c1a19;fill-opacity:1;fill-rule:nonzero;stroke:none"
         id="path50" />
      <path
         d="m 11502.3,4622.8 c -31.2,-11.2 -92.8,-29.5 -165.7,-29.4 -81.6,0.1 -148.8,21 -201.6,71.4 -46.4,44.9 -75.1,117 -75,201 1,160.9 111.6,278.4 292.4,278.2 62.5,-0.1 111.3,-13.7 134.5,-24.9 l -16.9,-56.9 c -28.8,12.9 -64.8,23.3 -119.2,23.4 -131.3,0.1 -217,-81.4 -217.2,-216.7 -0.1,-136.8 82.2,-217.8 207.9,-217.9 45.6,-0.1 76.8,6.3 92.8,14.3 l 0.2,160.9 -109.6,0.1 v 56 l 177.7,-0.2 -0.3,-259.3"
         style="fill:#1c1a19;fill-opacity:1;fill-rule:nonzero;stroke:none"
         id="path52" />
      <path
         d="m 11749.7,4640.1 c 0,29.6 20,50.4 48,50.4 28.1,0 47.3,-20.9 47.2,-50.5 0,-28.8 -18.5,-50.4 -48.1,-50.4 -28,0.1 -47.2,21.7 -47.1,50.5"
         style="fill:#1c1a19;fill-opacity:1;fill-rule:nonzero;stroke:none"
         id="path54" />
      <path
         d="m 12075.4,4639.8 c 0,29.6 20.1,50.4 48.1,50.3 28,0 47.2,-20.8 47.2,-50.4 -0.1,-28.9 -18.5,-50.5 -48.1,-50.4 -28,0 -47.2,21.6 -47.2,50.5"
         style="fill:#1c1a19;fill-opacity:1;fill-rule:nonzero;stroke:none"
         id="path56" />
      <path
         d="m 12401.2,4639.4 c 0,29.6 20,50.4 48,50.4 28.1,-0.1 47.2,-20.9 47.2,-50.5 0,-28.8 -18.5,-50.4 -48.1,-50.4 -28,0 -47.2,21.7 -47.1,50.5"
         style="fill:#1c1a19;fill-opacity:1;fill-rule:nonzero;stroke:none"
         id="path58" />
      <path
         d="m 5511.72,6838.2 c -107.99,0 -195.85,-87.8 -195.85,-195.8 v -723.1 c 0,-108 87.86,-195.8 195.85,-195.8 h 8976.58 c 108,0 195.8,87.8 195.8,195.8 v 723.1 c 0,108 -87.8,195.8 -195.8,195.8 z M 14488.3,5639.1 H 5511.72 c -154.53,0 -280.24,125.7 -280.24,280.2 v 723.1 c 0,154.5 125.71,280.2 280.24,280.2 h 8976.58 c 154.5,0 280.2,-125.7 280.2,-280.2 v -723.1 c 0,-154.5 -125.7,-280.2 -280.2,-280.2"
         style="fill:#1c1a19;fill-opacity:1;fill-rule:nonzero;stroke:none"
         id="path60" />
      <path
         d="m 5807.87,5799.2 h -242.16 c -88.03,0 -159.4,71.4 -159.4,159.4 v 644.5 c 0,88 71.37,159.4 159.4,159.4 h 242.16 c 88.03,0 159.4,-71.4 159.4,-159.4 v -644.5 c 0,-88 -71.37,-159.4 -159.4,-159.4"
         style="fill:#1c1a19;fill-opacity:1;fill-rule:nonzero;stroke:none"
         id="path62" />
      <path
         d="m 6449.97,5799.2 h -242.16 c -88.03,0 -159.4,71.4 -159.4,159.4 v 644.5 c 0,88 71.37,159.4 159.4,159.4 h 242.16 c 88.03,0 159.4,-71.4 159.4,-159.4 v -644.5 c 0,-88 -71.37,-159.4 -159.4,-159.4"
         style="fill:#1c1a19;fill-opacity:1;fill-rule:nonzero;stroke:none"
         id="path64" />
      <path
         d="m 7092.06,5799.2 h -242.15 c -88.04,0 -159.41,71.4 -159.41,159.4 v 644.5 c 0,88 71.37,159.4 159.41,159.4 h 242.16 c 88.03,0 159.39,-71.4 159.39,-159.4 v -644.5 c 0,-88 -71.36,-159.4 -159.4,-159.4"
         style="fill:#1c1a19;fill-opacity:1;fill-rule:nonzero;stroke:none"
         id="path66" />
      <path
         d="m 7734.16,5799.2 h -242.15 c -88.04,0 -159.41,71.4 -159.41,159.4 v 644.5 c 0,88 71.37,159.4 159.41,159.4 h 242.15 c 88.04,0 159.4,-71.4 159.4,-159.4 v -644.5 c 0,-88 -71.36,-159.4 -159.4,-159.4"
         style="fill:#1c1a19;fill-opacity:1;fill-rule:nonzero;stroke:none"
         id="path68" />
      <path
         d="M 8376.26,5799.2 H 8134.1 c -88.03,0 -159.4,71.4 -159.4,159.4 v 644.5 c 0,88 71.37,159.4 159.4,159.4 h 242.16 c 88.03,0 159.4,-71.4 159.4,-159.4 v -644.5 c 0,-88 -71.37,-159.4 -159.4,-159.4"
         style="fill:#1c1a19;fill-opacity:1;fill-rule:nonzero;stroke:none"
         id="path70" />
      <path
         d="M 9018.35,5799.2 H 8776.2 c -88.04,0 -159.4,71.4 -159.4,159.4 v 644.5 c 0,88 71.36,159.4 159.4,159.4 h 242.15 c 88.04,0 159.41,-71.4 159.41,-159.4 v -644.5 c 0,-88 -71.37,-159.4 -159.41,-159.4"
         style="fill:#1c1a19;fill-opacity:1;fill-rule:nonzero;stroke:none"
         id="path72" />
      <path
         d="M 9660.45,5799.2 H 9418.3 c -88.04,0 -159.4,71.4 -159.4,159.4 v 644.5 c 0,88 71.36,159.4 159.4,159.4 h 242.15 c 88.04,0 159.41,-71.4 159.41,-159.4 v -644.5 c 0,-88 -71.37,-159.4 -159.41,-159.4"
         style="fill:#1c1a19;fill-opacity:1;fill-rule:nonzero;stroke:none"
         id="path74" />
      <path
         d="m 10302.5,5799.2 h -242.1 c -88.04,0 -159.41,71.4 -159.41,159.4 v 644.5 c 0,88 71.37,159.4 159.41,159.4 h 242.1 c 88.1,0 159.5,-71.4 159.5,-159.4 v -644.5 c 0,-88 -71.4,-159.4 -159.5,-159.4"
         style="fill:#1c1a19;fill-opacity:1;fill-rule:nonzero;stroke:none"
         id="path76" />
    </g>
  </g>
</svg>
