<?xml version="1.0" encoding="utf-8"?>
<!-- Generator: Adobe Illustrator 16.0.3, SVG Export Plug-In . SVG Version: 6.00 Build 0)  -->
<!DOCTYPE svg PUBLIC "-//W3C//DTD SVG 1.1//EN" "http://www.w3.org/Graphics/SVG/1.1/DTD/svg11.dtd">
<svg version="1.1" id="Layer_1" xmlns="http://www.w3.org/2000/svg" xmlns:xlink="http://www.w3.org/1999/xlink" x="0px" y="0px"
	 width="25.51px" height="19.84px" viewBox="0 0 25.51 19.84" enable-background="new 0 0 25.51 19.84" xml:space="preserve">
<g>
	<g>
		<g>
			<g>
				<rect x="15.17" y="10.791" fill="#0101C4" width="4.501" height="1"/>
			</g>
		</g>
		<g>
			<g>
				<rect x="15.17" y="13.207" fill="#0101C4" width="4.501" height="1"/>
			</g>
		</g>
		<g>
			<g>
				<rect x="15.17" y="15.624" fill="#0101C4" width="4.501" height="1"/>
			</g>
		</g>
	</g>
	<g>
		<path fill="#0101C4" d="M19.19,19.824H4.36c-1.949,0-3.535-1.586-3.535-3.535V6.584c0-1.949,1.586-3.535,3.535-3.535H19.19
			c1.949,0,3.535,1.586,3.535,3.535v9.705C22.726,18.238,21.14,19.824,19.19,19.824z M4.36,4.45c-1.177,0-2.134,0.958-2.134,2.134
			v9.705c0,1.177,0.958,2.135,2.134,2.135H19.19c1.177,0,2.135-0.958,2.135-2.135V6.584c0-1.177-0.958-2.134-2.135-2.134H4.36z"/>
	</g>
	<g>
		<g>
			<path fill-rule="evenodd" clip-rule="evenodd" fill="#0101C4" d="M15.197,4.759c0.001-2.615,2.141-4.753,4.747-4.743
				c2.624,0.01,4.756,2.146,4.74,4.75c-0.015,2.625-2.123,4.731-4.74,4.738C17.336,9.511,15.196,7.373,15.197,4.759z M19.943,8.548
				c2.094-0.003,3.796-1.708,3.786-3.793c-0.008-2.096-1.688-3.776-3.784-3.785c-2.085-0.009-3.79,1.694-3.792,3.788
				C16.15,6.848,17.854,8.552,19.943,8.548z"/>
		</g>
		<g>
			<path fill-rule="evenodd" clip-rule="evenodd" fill="#FFFFFF" d="M19.943,8.548c-2.089,0.003-3.793-1.701-3.79-3.79
				c0.002-2.094,1.707-3.797,3.792-3.788c2.096,0.009,3.776,1.689,3.784,3.785C23.739,6.84,22.037,8.545,19.943,8.548z
				 M21.952,3.464c-0.675,0.675-1.35,1.35-2.029,2.029c-0.668-0.668-1.34-1.341-2.012-2.013c-0.224,0.225-0.445,0.447-0.656,0.659
				c0.897,0.897,1.797,1.797,2.687,2.687c0.892-0.892,1.791-1.792,2.688-2.688C22.416,3.927,22.196,3.708,21.952,3.464z"/>
		</g>
		<g>
			<path fill-rule="evenodd" clip-rule="evenodd" fill="#0101C4" d="M21.952,3.464c0.244,0.244,0.464,0.463,0.677,0.675
				c-0.896,0.896-1.796,1.795-2.688,2.688c-0.89-0.89-1.789-1.79-2.687-2.687c0.211-0.211,0.433-0.434,0.656-0.659
				c0.672,0.671,1.344,1.345,2.012,2.013C20.603,4.813,21.277,4.139,21.952,3.464z"/>
		</g>
	</g>
	<g>
		<g>
			<path fill="#0101C4" d="M12.372,14.344h1.08c-0.338,0.686-0.857,1.223-1.556,1.61c-0.8,0.447-1.776,0.67-2.928,0.67
				c-1.115,0-2.078-0.188-2.889-0.565c-0.811-0.376-1.413-0.933-1.809-1.667s-0.593-1.534-0.593-2.398
				c0-0.949,0.225-1.833,0.673-2.652c0.45-0.819,1.064-1.434,1.845-1.844c0.78-0.41,1.672-0.616,2.676-0.616
				c0.852,0,1.607,0.166,2.27,0.497s1.168,0.802,1.518,1.411s0.524,1.276,0.524,1.998c0,0.862-0.265,1.64-0.795,2.335
				c-0.665,0.879-1.518,1.318-2.558,1.318c-0.281,0-0.492-0.049-0.634-0.147s-0.236-0.241-0.283-0.431
				c-0.399,0.385-0.858,0.578-1.379,0.578c-0.561,0-1.025-0.193-1.396-0.581c-0.369-0.387-0.555-0.901-0.555-1.542
				c0-0.794,0.224-1.518,0.669-2.173c0.541-0.797,1.233-1.196,2.078-1.196c0.602,0,1.045,0.229,1.332,0.689l0.127-0.563h1.338
				l-0.766,3.632c-0.047,0.229-0.071,0.378-0.071,0.446c0,0.084,0.02,0.146,0.059,0.189s0.085,0.063,0.14,0.063
				c0.162,0,0.372-0.098,0.628-0.294c0.345-0.256,0.623-0.602,0.836-1.033c0.213-0.433,0.319-0.88,0.319-1.342
				c0-0.831-0.301-1.526-0.902-2.085c-0.601-0.559-1.44-0.839-2.518-0.839c-0.915,0-1.691,0.187-2.328,0.56S5.406,9.271,5.084,9.949
				C4.762,10.626,4.6,11.331,4.6,12.063c0,0.713,0.181,1.361,0.54,1.945c0.359,0.585,0.864,1.012,1.515,1.279
				c0.65,0.27,1.394,0.403,2.231,0.403c0.808,0,1.502-0.112,2.083-0.337C11.549,15.13,12.017,14.793,12.372,14.344z M6.895,12.261
				c0,0.43,0.088,0.745,0.262,0.948c0.173,0.202,0.389,0.304,0.646,0.304c0.192,0,0.373-0.047,0.542-0.142
				c0.129-0.067,0.255-0.175,0.38-0.319c0.18-0.206,0.333-0.507,0.464-0.902c0.13-0.395,0.194-0.763,0.194-1.104
				c0-0.382-0.088-0.675-0.266-0.879C8.939,9.962,8.715,9.86,8.445,9.86c-0.29,0-0.56,0.112-0.806,0.337
				c-0.246,0.224-0.433,0.544-0.558,0.96C6.957,11.572,6.895,11.94,6.895,12.261z"/>
		</g>
	</g>
</g>
</svg>
